<?xml version="1.0" standalone="no"?>
<!DOCTYPE svg PUBLIC "-//W3C//DTD SVG 20010904//EN"
 "http://www.w3.org/TR/2001/REC-SVG-20010904/DTD/svg10.dtd">
<svg version="1.0" xmlns="http://www.w3.org/2000/svg"
 width="1752.000000pt" height="1752.000000pt" viewBox="0 0 1752.000000 1752.000000"
 preserveAspectRatio="xMidYMid meet">
<metadata>
Created by potrace 1.11, written by Peter Selinger 2001-2013
</metadata>
<g transform="translate(0.000000,1752.000000) scale(0.100000,-0.100000)"
fill="#000000" stroke="none">
<path d="M8587 13744 c-3 -4 -30 -8 -59 -10 -83 -4 -204 -15 -229 -19 -130
-22 -153 -26 -264 -54 -75 -19 -281 -91 -308 -108 -6 -4 -14 -8 -17 -8 -3 -1
-26 -11 -52 -23 -26 -12 -51 -22 -57 -22 -5 0 -11 -5 -13 -11 -2 -5 -10 -11
-18 -12 -8 -2 -22 -7 -30 -12 -27 -18 -55 -34 -70 -41 -8 -4 -17 -10 -20 -13
-3 -4 -22 -15 -43 -26 -21 -11 -49 -30 -64 -42 -14 -13 -29 -23 -32 -23 -3 0
-19 -11 -35 -25 -16 -14 -32 -25 -35 -25 -6 0 -35 -24 -139 -117 -69 -61 -74
-64 -130 -68 -26 -2 -47 -4 -47 -5 0 -2 -24 -7 -75 -15 -25 -3 -79 -15 -120
-26 -93 -25 -89 -23 -123 -37 -16 -7 -34 -12 -41 -12 -7 0 -16 -3 -20 -7 -3
-4 -15 -8 -26 -10 -11 -2 -49 -16 -84 -32 -36 -16 -67 -27 -70 -23 -3 3 -6 0
-6 -6 0 -7 -9 -12 -20 -12 -11 0 -20 -4 -20 -10 0 -5 -6 -10 -12 -10 -14 0
-25 -5 -134 -65 -84 -45 -198 -117 -202 -127 -2 -5 -8 -8 -14 -8 -8 0 -27 -13
-98 -67 -140 -106 -319 -285 -419 -419 -25 -32 -48 -60 -53 -62 -4 -2 -8 -10
-8 -17 0 -7 -4 -15 -8 -17 -12 -5 -116 -174 -160 -261 -54 -104 -76 -159 -73
-177 2 -8 -1 -12 -5 -7 -7 7 -86 -214 -99 -279 -10 -47 -10 -48 -18 -61 -5 -7
-5 -17 -2 -23 3 -5 3 -10 -2 -10 -4 0 -9 -12 -10 -27 0 -16 -4 -44 -8 -63 -18
-99 -25 -153 -30 -246 -2 -38 -4 -71 -5 -74 -1 -3 -1 -14 -1 -26 1 -12 -7 -32
-18 -45 -12 -13 -43 -55 -71 -94 -27 -38 -54 -76 -60 -82 -6 -7 -8 -13 -6 -13
3 0 -15 -33 -39 -74 -25 -40 -45 -79 -45 -85 0 -6 -4 -11 -10 -11 -5 0 -10 -9
-10 -20 0 -11 -4 -20 -10 -20 -5 0 -9 -3 -8 -7 1 -5 -8 -29 -20 -55 -34 -73
-45 -102 -43 -112 1 -5 -3 -12 -8 -16 -6 -3 -12 -15 -14 -25 -1 -11 -5 -24 -9
-30 -5 -9 -37 -115 -42 -140 -1 -5 -10 -35 -19 -65 -15 -53 -21 -77 -33 -150
-9 -49 -12 -65 -14 -65 -1 0 -4 -13 -5 -30 -2 -16 -7 -57 -11 -90 -11 -79 -11
-429 -1 -525 5 -41 9 -84 11 -95 1 -11 5 -26 10 -33 4 -7 6 -16 3 -18 -3 -3
-1 -19 4 -36 5 -17 11 -49 15 -72 3 -22 8 -44 11 -48 2 -5 6 -21 9 -36 3 -15
7 -34 11 -42 3 -8 7 -20 9 -27 6 -32 38 -119 47 -130 5 -7 7 -13 3 -13 -4 0 3
-19 15 -42 12 -24 22 -45 22 -48 1 -16 23 -60 29 -60 4 0 8 -7 8 -15 0 -13 68
-154 80 -165 3 -3 24 -37 47 -76 23 -39 49 -76 57 -84 9 -7 16 -18 16 -25 0
-7 7 -15 15 -19 8 -3 15 -10 15 -16 0 -6 5 -16 10 -23 6 -7 20 -23 31 -37 29
-35 121 -140 137 -156 14 -14 19 -34 27 -99 3 -22 7 -53 10 -70 3 -16 7 -40 7
-52 1 -13 5 -23 8 -23 3 0 6 -8 7 -17 3 -34 10 -68 29 -128 10 -33 19 -63 20
-67 1 -5 3 -10 4 -13 1 -3 3 -8 4 -12 1 -5 4 -12 7 -18 4 -5 12 -28 19 -50 7
-22 22 -60 33 -85 11 -25 21 -47 22 -50 4 -16 65 -137 108 -215 134 -240 333
-484 532 -650 70 -58 225 -172 260 -191 86 -46 99 -54 91 -54 -5 0 45 -27 112
-60 66 -33 124 -60 129 -60 4 0 21 -7 37 -15 15 -8 32 -13 36 -10 5 3 10 1 12
-3 2 -7 63 -31 118 -47 39 -11 137 -37 150 -40 8 -2 38 -9 65 -15 48 -11 61
-13 135 -24 70 -11 146 -18 218 -21 59 -2 79 -7 110 -29 20 -14 75 -53 122
-86 47 -33 91 -60 98 -60 6 0 12 -3 12 -7 0 -14 258 -138 335 -162 22 -7 56
-20 75 -29 19 -9 37 -17 40 -17 55 -11 122 -30 126 -36 2 -5 11 -6 19 -2 8 3
15 0 15 -7 0 -6 5 -8 10 -5 6 4 17 1 25 -5 8 -7 15 -10 15 -7 0 3 26 -1 58 -9
31 -7 69 -13 85 -14 15 0 27 -3 27 -7 0 -5 15 -9 33 -9 17 -1 59 -5 92 -9 69
-8 456 -14 469 -7 4 2 25 6 47 7 21 2 48 6 60 10 16 6 20 4 13 -6 -6 -11 -5
-12 7 -2 8 7 24 12 34 12 11 0 61 9 110 20 50 11 99 23 110 25 35 8 49 12 125
36 41 14 77 25 80 25 3 0 15 6 26 13 12 6 24 8 28 5 3 -3 6 -2 6 4 0 6 11 14
25 17 14 4 62 24 107 46 44 22 87 40 95 40 7 0 13 3 13 8 0 4 24 20 53 36 28
16 54 32 57 35 3 3 21 15 40 25 19 11 76 50 125 86 81 60 112 86 195 164 30
28 45 33 130 42 36 3 72 10 80 14 8 4 23 6 33 5 9 -2 17 0 17 4 0 4 10 7 23 8
22 1 128 28 157 40 8 3 20 7 25 8 6 2 42 15 80 30 39 15 75 28 80 29 38 8 365
175 396 202 8 8 21 14 27 14 7 0 12 3 12 8 0 4 27 23 60 42 33 19 60 38 60 42
0 3 16 16 35 28 40 25 91 67 152 126 24 23 43 39 43 37 0 -3 16 14 35 37 19
23 49 55 65 70 17 15 30 33 30 38 0 6 3 12 8 14 6 3 83 93 104 123 4 5 19 25
34 43 14 17 23 32 20 32 -6 0 15 28 42 55 6 8 12 16 12 19 0 3 20 40 45 82 25
41 45 79 45 83 0 5 9 20 21 35 11 14 17 26 14 26 -4 0 -1 10 7 23 8 12 20 39
27 60 7 20 17 37 22 37 6 0 7 4 4 10 -3 5 1 23 10 40 8 16 12 30 8 30 -5 0 -3
4 2 8 10 6 70 185 80 237 3 11 6 27 8 35 8 33 21 115 19 123 -1 4 1 7 5 7 5 0
9 17 10 38 1 20 4 57 8 82 5 42 13 154 15 208 0 12 9 31 20 42 11 11 18 20 15
20 -4 0 11 20 40 54 9 10 30 42 104 156 9 14 25 43 36 65 11 22 23 42 28 43 4
2 5 7 2 12 -3 5 2 15 10 24 9 8 15 18 15 21 -3 14 25 75 34 75 5 0 6 3 3 7 -4
3 -2 12 3 19 6 6 13 20 15 30 2 11 13 44 25 74 41 106 49 130 43 130 -3 0 -1
6 4 13 11 13 39 117 35 130 -1 4 2 7 7 7 6 0 8 9 6 20 -2 11 -1 20 4 20 4 0 7
10 8 23 1 12 3 31 6 42 4 17 18 90 23 120 1 6 3 12 4 15 1 5 7 73 13 160 2 19
6 41 10 48 5 7 3 12 -3 12 -6 0 -8 5 -5 10 10 17 12 100 3 106 -5 3 -5 11 0
17 4 7 7 21 6 32 -2 11 -5 58 -8 105 -3 47 -8 103 -11 125 -3 22 -7 54 -9 70
-2 17 -6 44 -10 60 -3 17 -8 44 -10 60 -3 17 -7 37 -10 45 -3 8 -7 26 -10 40
-9 52 -58 205 -69 219 -10 12 -9 13 2 6 10 -5 7 4 -6 26 -12 19 -22 39 -23 44
-7 51 -199 407 -250 465 -8 10 -35 46 -60 80 -24 35 -56 75 -70 89 -14 15 -42
45 -62 67 -20 21 -39 53 -42 69 -3 17 -7 48 -11 70 -3 23 -8 52 -11 65 -3 14
-7 34 -8 45 -3 29 -16 85 -28 125 -11 37 -15 52 -16 60 0 5 -26 76 -42 115 -4
11 -14 36 -21 55 -7 19 -30 73 -51 120 -22 47 -40 89 -41 95 -1 5 -10 18 -19
28 -9 11 -20 33 -23 48 -4 16 -10 29 -13 29 -4 0 -18 21 -32 48 -13 26 -29 50
-35 54 -5 4 -6 8 -2 8 4 0 -1 9 -11 20 -10 11 -25 33 -33 48 -8 15 -16 29 -19
32 -10 10 -50 69 -50 74 0 3 -10 16 -22 30 -64 71 -78 87 -78 92 0 8 -163 167
-230 224 -28 25 -58 51 -65 58 -8 6 -17 12 -21 12 -4 0 -17 11 -30 25 -13 14
-25 25 -27 25 -3 0 -48 29 -100 65 -52 35 -97 61 -101 58 -3 -3 -6 -2 -6 4 0
5 -35 27 -77 49 -43 21 -79 42 -81 46 -2 5 -11 8 -21 8 -9 0 -21 4 -27 8 -5 5
-47 24 -94 41 -47 18 -94 36 -105 41 -11 4 -40 14 -65 21 -25 7 -49 15 -55 18
-5 3 -16 6 -25 7 -20 3 -55 12 -55 14 0 1 -7 3 -15 5 -8 1 -40 7 -70 14 -99
20 -125 24 -152 25 -16 0 -28 3 -28 6 0 3 -27 5 -61 5 -33 0 -62 3 -64 6 -2 3
-31 5 -63 4 -62 -2 -59 -4 -179 95 -7 6 -24 15 -38 22 -14 6 -25 15 -25 20 0
4 -7 8 -15 8 -8 0 -15 3 -15 8 0 4 -10 12 -23 18 -12 7 -61 32 -109 57 -47 25
-89 43 -92 40 -3 -4 -6 -1 -6 5 0 7 -4 12 -10 12 -5 0 -35 12 -67 27 -32 15
-65 28 -73 29 -9 2 -34 11 -55 20 -22 9 -41 16 -42 16 -2 -1 -22 6 -45 15 -24
8 -50 16 -58 18 -8 1 -22 5 -30 8 -14 6 -83 24 -122 33 -10 2 -28 7 -40 10
-13 3 -37 6 -54 8 -17 1 -35 5 -40 8 -5 4 -37 9 -71 13 -34 3 -72 8 -85 10
-13 3 -51 6 -85 7 -36 1 -59 6 -56 12 4 5 1 6 -7 1 -16 -10 -140 -12 -133 -2
5 9 -1 9 -10 1z m45 -789 c15 -1 28 3 28 8 0 5 7 4 15 -3 8 -7 15 -8 15 -3 0
5 20 9 45 9 25 0 45 -4 45 -7 0 -9 27 -6 36 4 4 3 12 3 18 -1 11 -7 20 -8 94
-10 23 -1 42 -5 42 -10 0 -4 -35 -29 -77 -55 -43 -26 -87 -53 -98 -60 -11 -6
-22 -14 -25 -17 -3 -3 -22 -16 -42 -30 -21 -14 -38 -28 -38 -32 0 -5 -5 -8
-11 -8 -6 0 -16 -6 -23 -12 -7 -7 -32 -29 -56 -48 -65 -52 -240 -227 -240
-240 0 -6 -4 -8 -10 -5 -5 3 -10 0 -10 -9 0 -8 -4 -16 -9 -18 -5 -1 -32 -32
-60 -68 -28 -36 -55 -70 -61 -77 -29 -35 -142 -216 -151 -242 -6 -17 -15 -31
-20 -31 -5 0 -9 -4 -9 -10 0 -5 -13 -37 -29 -72 -41 -87 -72 -160 -76 -178 -2
-8 -15 -47 -29 -86 -13 -39 -27 -84 -29 -100 -3 -16 -8 -36 -11 -44 -3 -8 -8
-27 -11 -42 -3 -16 -7 -38 -10 -50 -13 -69 -17 -93 -29 -216 -3 -23 -8 -47
-11 -52 -3 -6 0 -10 7 -10 9 0 9 -3 -2 -10 -9 -6 -10 -10 -3 -10 8 0 9 -9 4
-27 -13 -51 1 -310 24 -433 9 -46 17 -105 19 -127 0 -13 5 -23 10 -23 4 0 6
-6 3 -14 -3 -8 -3 -17 1 -21 4 -4 7 -14 8 -23 0 -9 3 -24 7 -32 10 -26 40
-134 40 -147 0 -7 4 -13 9 -13 5 0 8 -6 7 -12 -1 -7 0 -20 4 -28 3 -8 15 -42
27 -75 12 -33 26 -65 32 -72 6 -7 7 -13 3 -13 -4 0 -2 -6 4 -13 23 -29 -3 -24
-62 11 -34 20 -64 39 -67 42 -3 3 -25 19 -50 35 -25 17 -50 35 -56 40 -7 6
-31 26 -55 45 -63 49 -219 212 -219 227 0 7 -4 13 -9 13 -7 0 -95 118 -96 130
0 3 -12 23 -26 45 -40 61 -59 102 -52 109 4 3 1 6 -5 6 -7 0 -12 5 -12 10 0 6
-8 29 -19 53 -34 78 -50 122 -57 157 -3 19 -11 41 -16 48 -6 6 -7 12 -4 12 4
0 4 6 -1 13 -4 6 -8 21 -8 32 0 11 -3 25 -6 30 -6 9 -12 45 -25 160 -6 50 -6
255 0 315 11 109 19 165 25 170 3 3 7 14 8 25 1 16 9 60 12 73 1 1 2 5 2 10 1
4 11 32 21 62 11 30 21 60 22 66 3 16 79 188 86 194 3 3 13 21 24 40 21 39 85
139 101 156 6 6 24 28 40 49 56 70 190 195 260 243 22 15 42 29 45 33 6 6 161
99 166 99 1 0 37 16 78 35 42 19 82 35 89 35 7 0 22 7 33 15 12 8 24 12 27 8
4 -3 13 0 22 7 8 7 15 9 15 5 0 -4 7 -2 15 5 8 7 15 10 15 7 0 -3 16 -1 36 5
51 14 134 29 179 32 11 1 25 4 30 7 6 3 25 5 43 4 17 -1 32 3 32 7 0 5 5 6 12
2 7 -4 25 -8 40 -9z m1618 -537 c0 -5 4 -7 10 -3 12 8 117 -10 210 -35 25 -7
50 -13 55 -15 6 -1 21 -6 35 -12 14 -5 50 -18 80 -29 93 -32 330 -158 330
-175 0 -5 5 -9 11 -9 10 0 33 -17 122 -90 29 -23 175 -170 170 -170 -2 0 12
-17 31 -37 20 -21 36 -41 36 -45 0 -4 7 -14 16 -23 23 -22 14 -26 -32 -14 -75
21 -268 58 -276 53 -4 -3 -8 -2 -8 3 0 4 -17 9 -38 10 -136 5 -233 12 -242 18
-5 3 -10 0 -10 -7 0 -10 -2 -10 -9 0 -9 15 -20 15 -38 0 -8 -7 -13 -7 -13 -1
0 10 -54 8 -71 -2 -5 -4 -9 -1 -9 5 0 6 -5 8 -12 4 -6 -4 -34 -9 -62 -10 -88
-6 -140 -11 -171 -17 -16 -4 -46 -9 -65 -12 -66 -11 -175 -37 -194 -47 -12 -7
-16 -7 -12 0 3 6 -11 2 -31 -8 -21 -10 -53 -21 -70 -25 -18 -3 -33 -11 -33
-16 0 -6 -4 -8 -10 -4 -5 3 -31 -4 -57 -16 -58 -26 -240 -115 -268 -132 -11
-7 -43 -25 -70 -41 -27 -16 -54 -33 -60 -38 -53 -42 -116 -88 -121 -88 -17 0
-250 -228 -323 -315 -36 -44 -74 -89 -83 -99 -10 -11 -18 -23 -18 -26 0 -4 -9
-18 -20 -31 -12 -12 -31 -39 -42 -59 -12 -19 -25 -37 -28 -40 -4 -3 -22 -32
-40 -65 -18 -33 -36 -62 -39 -65 -4 -3 -15 -24 -25 -47 -11 -24 -23 -43 -28
-43 -4 0 -7 -3 -6 -7 1 -5 -9 -33 -24 -63 -14 -30 -38 -82 -52 -114 -28 -62
-33 -65 -40 -25 -2 13 -5 25 -7 27 -3 4 -14 53 -24 107 -2 11 -4 20 -5 20 -2
0 -7 30 -16 95 -9 68 -9 367 0 435 7 52 13 87 16 95 1 3 3 10 4 15 11 67 20
102 28 113 6 6 8 12 5 12 -5 0 18 67 53 155 6 17 12 32 12 35 0 3 9 17 19 31
10 14 16 29 12 33 -3 3 -2 6 3 6 6 0 16 16 24 35 8 19 17 35 22 35 4 0 7 3 6
8 -3 9 55 100 81 129 12 12 21 25 21 28 0 7 38 52 83 99 20 21 37 41 37 44 0
2 8 12 19 21 26 23 123 109 141 125 41 37 196 133 285 176 114 54 240 102 249
93 3 -4 6 -1 6 6 0 6 6 11 13 9 6 -1 21 1 32 5 11 3 31 8 45 11 14 3 39 8 55
11 17 4 45 8 63 10 18 1 35 5 38 7 9 9 324 5 324 -4z m-3829 -401 c-10 -37
-16 -67 -14 -67 3 0 0 -7 -7 -15 -7 -8 -10 -24 -7 -35 3 -11 1 -20 -5 -20 -5
0 -7 -4 -4 -8 3 -4 1 -26 -4 -48 -9 -38 -13 -68 -26 -189 -7 -71 -8 -351 0
-415 9 -79 28 -208 33 -230 2 -8 5 -24 8 -35 10 -53 33 -140 52 -195 8 -25 16
-49 17 -55 1 -5 5 -16 9 -22 5 -7 5 -17 2 -23 -3 -5 -2 -10 2 -10 5 0 15 -17
22 -37 8 -21 29 -70 47 -109 19 -39 34 -76 34 -82 0 -7 4 -12 8 -12 4 0 18
-21 31 -47 27 -57 139 -227 152 -231 5 -2 9 -10 9 -18 0 -8 5 -14 12 -14 6 0
9 -3 5 -6 -3 -3 12 -23 34 -45 21 -21 39 -42 39 -46 0 -8 198 -201 265 -258
71 -60 249 -184 258 -178 4 2 7 0 7 -6 0 -5 20 -20 45 -32 25 -12 45 -27 45
-31 0 -5 5 -6 10 -3 6 3 10 2 10 -2 0 -7 34 -24 65 -32 6 -1 17 -8 25 -15 8
-7 40 -24 70 -38 147 -68 164 -77 144 -78 -11 0 -24 -3 -28 -7 -4 -5 -11 -8
-14 -8 -8 -1 -73 -14 -112 -23 -14 -3 -35 -6 -47 -6 -13 -1 -23 -3 -23 -6 0
-15 -383 -21 -475 -8 -27 4 -68 10 -90 13 -22 4 -47 9 -55 12 -8 3 -22 7 -30
8 -25 4 -133 36 -165 50 -16 7 -51 22 -77 34 -27 12 -51 21 -55 22 -5 0 -15 6
-23 13 -8 7 -33 21 -55 32 -54 26 -185 115 -185 125 0 5 -4 9 -10 9 -15 0 -47
28 -150 130 -139 139 -255 307 -329 478 -32 73 -78 205 -85 245 -3 12 -6 24
-7 27 -1 3 -3 10 -4 15 -2 6 -4 12 -5 15 -2 6 -6 31 -21 115 -18 106 -13 315
9 437 5 26 7 50 4 53 -3 3 -1 5 5 5 6 0 9 11 8 25 -2 14 0 25 4 25 4 0 8 6 8
14 0 39 103 315 130 347 7 9 10 19 6 22 -3 4 -1 7 5 7 7 0 12 6 12 13 0 18
110 177 173 251 47 55 139 147 194 194 35 30 107 81 110 79 1 -2 -6 -33 -16
-70z m4223 -980 c10 10 86 11 86 0 0 -5 6 -5 13 2 8 6 16 8 20 5 3 -3 36 -8
74 -10 71 -3 116 -9 161 -19 46 -9 71 -15 95 -20 48 -10 112 -28 122 -35 6 -4
22 -10 36 -13 14 -4 47 -16 75 -29 27 -12 51 -23 54 -23 18 -3 193 -104 218
-126 11 -9 26 -20 34 -25 44 -25 258 -225 258 -241 0 -6 63 -86 75 -95 7 -5 7
-8 0 -8 -5 0 -2 -5 8 -11 9 -5 17 -14 17 -19 0 -5 11 -25 24 -44 45 -66 154
-306 140 -306 -4 0 1 -12 11 -26 9 -14 14 -28 11 -31 -3 -4 -2 -11 3 -17 5 -6
12 -24 15 -41 3 -16 9 -47 14 -67 6 -20 7 -39 4 -42 -3 -4 -1 -6 5 -6 6 0 9
-12 7 -27 -1 -15 0 -31 3 -36 3 -6 7 -27 7 -48 1 -21 5 -41 8 -45 4 -3 3 -17
-2 -30 -5 -13 -6 -24 -2 -24 7 0 7 -55 2 -237 0 -7 0 -19 0 -25 0 -49 -6 -88
-13 -88 -4 0 -5 -4 -2 -10 3 -5 1 -10 -4 -10 -6 0 -11 5 -11 10 0 6 -12 29
-27 53 -14 23 -26 43 -24 45 1 1 -3 8 -9 15 -46 56 -60 76 -60 86 0 6 -4 11
-8 11 -4 0 -16 13 -25 30 -10 16 -23 35 -30 42 -7 7 -19 22 -27 34 -84 121
-350 376 -480 460 -25 16 -49 34 -53 41 -4 7 -12 13 -17 13 -5 0 -45 22 -89
50 -45 27 -81 47 -81 44 0 -2 -18 7 -40 21 -22 14 -44 25 -48 25 -5 0 -22 6
-38 14 -132 64 -358 135 -480 151 -17 3 -43 9 -58 15 -19 7 -26 6 -26 -3 0 -7
-3 -8 -8 -2 -4 6 -16 12 -27 14 -38 7 -495 10 -495 3 0 -4 -17 -7 -38 -6 -20
0 -41 -2 -47 -5 -10 -5 -24 -8 -95 -15 -25 -3 -46 -6 -47 -7 -2 -1 -6 -2 -10
-3 -42 -10 -72 -17 -92 -21 -13 -2 -49 -12 -80 -21 -31 -10 -61 -18 -68 -20
-7 -1 -43 -12 -80 -25 -37 -13 -71 -22 -75 -21 -5 1 -8 -3 -8 -10 0 -6 -3 -9
-6 -6 -3 4 -30 -5 -60 -18 -30 -13 -57 -24 -59 -24 -2 0 7 19 20 43 13 23 30
53 37 67 7 14 20 30 28 37 8 7 12 13 8 13 -7 0 -2 8 45 62 9 12 17 24 17 27 1
14 187 211 200 211 4 0 10 4 12 9 2 8 50 47 143 119 35 27 229 134 237 131 2
0 33 13 71 30 37 17 67 28 67 25 0 -3 6 -2 13 3 6 4 15 8 20 9 4 1 8 2 10 4
12 10 253 59 310 63 32 3 60 7 64 10 3 4 13 2 23 -3 10 -5 20 -7 24 -3z
m-5375 -1379 c8 -17 38 -67 68 -111 29 -44 53 -82 53 -83 0 -2 6 -12 14 -21 8
-10 44 -55 80 -99 63 -79 196 -218 266 -279 102 -88 270 -207 360 -256 25 -13
47 -26 50 -29 28 -29 407 -180 486 -193 16 -3 36 -8 44 -11 8 -3 27 -8 43 -11
15 -3 39 -8 55 -11 49 -11 170 -26 212 -28 14 0 27 -4 31 -8 3 -4 19 -4 37 1
17 5 34 6 36 3 5 -8 204 -7 213 1 3 4 14 2 24 -3 10 -6 20 -6 23 -2 3 5 20 9
38 10 32 1 151 17 194 26 12 2 38 7 59 10 20 3 44 10 53 14 9 5 24 8 32 7 8
-1 21 3 28 8 6 5 12 7 12 4 0 -5 140 34 180 50 8 3 20 7 26 8 6 2 50 19 98 38
47 19 86 33 86 31 0 -21 -100 -184 -113 -184 -6 0 -8 -3 -4 -6 5 -6 -29 -53
-93 -128 -44 -52 -145 -150 -191 -186 -24 -19 -45 -38 -47 -42 -2 -5 -8 -8
-13 -8 -9 0 -21 -8 -54 -37 -7 -7 -18 -13 -24 -13 -6 0 -11 -5 -11 -11 0 -5
-4 -7 -10 -4 -5 3 -10 2 -10 -3 0 -11 -236 -129 -272 -136 -7 -2 -24 -8 -38
-14 -20 -9 -53 -19 -120 -37 -11 -3 -117 -26 -139 -30 -97 -18 -267 -23 -401
-11 -141 12 -158 15 -202 27 -24 7 -50 13 -58 15 -81 13 -205 61 -344 131 -70
36 -87 46 -110 66 -11 9 -24 17 -28 17 -31 0 -338 287 -338 316 0 4 -9 17 -20
29 -31 33 -150 236 -144 246 3 5 1 9 -4 9 -5 0 -15 18 -22 40 -7 22 -17 40
-22 40 -5 0 -7 4 -4 8 3 5 -1 20 -8 34 -16 31 -56 175 -60 218 0 8 -4 17 -7
20 -4 3 -9 32 -13 65 -3 33 -9 71 -11 85 -8 33 -8 322 -1 385 3 28 5 53 6 58
1 17 16 5 29 -25z m5071 -19 c0 -4 8 -6 17 -5 10 2 36 -1 58 -6 22 -5 52 -11
67 -13 15 -2 51 -11 80 -20 29 -9 64 -19 78 -21 13 -3 29 -9 35 -13 5 -4 33
-16 60 -26 103 -37 304 -157 399 -237 65 -54 169 -160 211 -213 21 -27 45 -57
53 -65 7 -8 22 -28 33 -45 10 -16 23 -37 29 -45 32 -50 90 -152 90 -160 0 -5
8 -24 18 -42 25 -44 77 -187 97 -268 28 -106 25 -91 40 -215 3 -27 8 -56 10
-62 2 -7 -1 -13 -7 -13 -7 0 -7 -4 -1 -12 16 -22 2 -240 -22 -345 -3 -13 -7
-31 -9 -40 -2 -10 -12 -45 -21 -78 -9 -33 -17 -66 -17 -72 -1 -7 -6 -13 -11
-13 -6 0 -7 -3 -4 -7 4 -3 2 -12 -4 -20 -6 -7 -8 -13 -4 -13 4 0 3 -6 -2 -12
-13 -17 -48 -111 -45 -120 1 -5 -2 -8 -6 -8 -5 0 -17 -19 -28 -42 -17 -40 -91
-166 -104 -178 -3 -3 -24 -30 -46 -60 -38 -51 -185 -204 -230 -240 -10 -8 -40
-32 -65 -53 -52 -42 -65 -46 -49 -17 6 11 9 20 6 20 -2 0 2 24 10 53 7 28 16
68 19 87 3 20 8 47 11 60 3 14 6 35 7 48 1 12 4 22 8 22 3 0 6 23 5 50 -1 28
1 50 4 50 4 0 6 27 6 60 -1 33 1 60 4 60 8 0 5 68 -3 76 -3 4 -3 12 1 18 10
16 9 146 -2 146 -4 0 -3 6 3 13 6 8 9 16 6 19 -3 3 -8 36 -11 74 -7 92 -10
116 -17 134 -3 8 -5 22 -5 30 0 8 -4 29 -7 45 -4 17 -8 39 -10 50 -2 11 -11
49 -20 85 -9 36 -17 71 -17 78 -1 6 -5 12 -10 12 -4 0 -7 3 -6 8 7 34 -101
288 -174 410 -21 34 -38 65 -38 67 0 7 -69 106 -91 131 -11 11 -19 26 -19 32
0 7 -5 12 -10 12 -6 0 -14 8 -17 18 -13 34 -302 332 -322 332 -6 0 -14 6 -18
14 -21 35 -378 276 -409 276 -7 0 -14 3 -16 8 -4 10 -224 112 -242 112 -7 0
-17 7 -20 16 -3 9 -2 12 5 9 5 -4 15 -2 22 3 15 12 217 54 275 57 24 2 45 5
48 8 7 7 344 3 344 -4z m-777 -801 c106 -66 121 -77 218 -160 72 -61 151 -140
189 -190 8 -11 25 -31 38 -44 13 -13 20 -24 16 -24 -4 0 3 -11 16 -25 24 -26
46 -59 56 -87 3 -10 11 -18 16 -18 5 0 7 -4 3 -9 -3 -5 -1 -12 5 -16 9 -6 90
-166 95 -189 1 -6 5 -19 9 -28 4 -9 9 -22 10 -30 2 -7 6 -22 10 -33 5 -11 12
-31 17 -45 8 -22 15 -51 23 -97 1 -7 5 -15 8 -19 4 -3 4 -12 1 -20 -3 -8 -1
-14 3 -14 5 0 10 -17 11 -38 3 -50 11 -137 13 -137 7 0 6 -67 -1 -71 -5 -3 -6
-11 -2 -17 10 -15 11 -117 1 -117 -4 0 -3 -11 2 -25 5 -14 6 -25 2 -25 -4 0
-7 -15 -8 -32 -1 -42 -12 -125 -18 -147 -3 -9 -8 -28 -11 -43 -12 -61 -15 -76
-34 -133 -11 -32 -17 -63 -15 -67 3 -4 1 -8 -5 -8 -6 0 -15 -18 -21 -40 -6
-21 -15 -42 -20 -45 -6 -3 -10 -15 -10 -26 0 -10 -5 -19 -10 -19 -6 0 -9 -3
-8 -7 2 -14 -30 -75 -86 -163 -106 -165 -267 -325 -436 -432 -86 -54 -170 -99
-170 -91 0 4 -4 3 -8 -2 -6 -10 -43 -27 -117 -56 -16 -7 -32 -13 -35 -14 -32
-10 -97 -29 -102 -31 -5 -1 -9 -2 -10 -3 -2 -2 -14 -4 -28 -6 -32 -6 -65 -13
-65 -15 0 -3 -43 -10 -90 -15 -27 -2 -61 -7 -75 -10 -45 -10 -384 -6 -410 5
-3 1 -14 2 -25 1 -19 -2 -18 0 3 17 13 10 40 27 60 38 21 10 39 21 42 25 3 3
41 30 85 59 44 29 82 56 85 60 3 4 25 22 50 41 25 19 59 46 75 59 43 36 256
251 282 286 41 53 58 76 81 104 12 15 22 32 22 38 0 6 3 12 8 14 7 3 34 43 77
113 30 48 135 255 130 255 -3 0 4 16 14 36 11 20 25 58 32 85 7 27 16 49 20
49 4 0 6 8 5 18 -2 9 0 19 4 22 5 3 11 21 14 40 3 19 12 56 20 83 8 26 13 47
10 47 -3 0 -2 6 2 12 8 13 10 21 18 88 3 19 5 35 7 35 1 0 3 11 4 25 1 14 6
61 10 105 13 129 8 369 -10 475 -5 32 -15 98 -20 130 -4 25 -31 150 -40 183
-3 9 -7 25 -9 35 -8 32 -57 187 -66 207 -30 66 -56 145 -50 145 5 0 47 -24 93
-52z m-678 -426 c14 -59 26 -125 28 -147 1 -22 6 -45 9 -50 7 -12 7 -326 0
-339 -3 -5 -6 -23 -7 -40 -4 -57 -16 -127 -25 -151 -5 -14 -8 -25 -5 -25 2 0
-2 -18 -10 -40 -8 -22 -12 -40 -10 -40 6 0 -69 -179 -93 -225 -12 -22 -22 -45
-22 -52 0 -7 -4 -13 -9 -13 -5 0 -11 -8 -15 -17 -6 -18 -27 -54 -37 -63 -3 -3
-15 -21 -27 -40 -11 -20 -29 -45 -39 -57 -10 -12 -31 -38 -48 -59 -125 -157
-340 -325 -535 -417 -84 -39 -124 -57 -140 -62 -3 -1 -43 -14 -90 -29 -47 -15
-96 -29 -110 -31 -14 -2 -25 -4 -25 -5 0 -6 -77 -18 -165 -25 -41 -4 -87 -8
-102 -10 -16 -1 -28 2 -28 8 0 6 -5 6 -12 0 -7 -5 -22 -8 -33 -7 -147 14 -184
18 -235 28 -19 4 -42 8 -50 9 -8 2 -20 6 -26 10 -7 4 -29 9 -50 13 -48 7 -213
69 -271 101 -24 13 -43 20 -43 16 0 -4 -4 -3 -8 3 -4 6 -25 21 -47 33 -192
104 -345 240 -488 432 l-26 37 82 -20 c45 -10 94 -20 110 -21 15 -1 27 -6 27
-10 0 -5 4 -6 8 -3 4 3 26 1 48 -4 21 -5 63 -11 92 -14 28 -3 75 -9 102 -12
62 -7 341 -7 395 -1 22 3 69 9 105 13 65 8 78 10 83 13 1 2 18 4 37 7 46 6 56
8 110 23 25 7 53 15 62 17 10 2 27 6 37 8 19 4 150 50 181 63 8 3 17 7 20 8 3
1 16 6 30 12 14 7 49 22 78 34 28 12 52 26 52 31 0 4 6 8 14 8 40 0 303 176
419 280 93 83 225 221 282 295 17 21 37 46 45 55 8 8 24 32 35 52 10 21 21 35
24 33 2 -3 9 5 16 18 15 28 112 189 122 202 5 6 9 17 11 25 2 8 8 18 14 21 5
3 9 9 9 13 -1 3 12 32 27 64 16 31 40 85 53 119 28 75 31 72 64 -75z"/>
<path d="M6675 4601 c-5 -8 2 -122 8 -128 3 -2 1 -17 -3 -33 -4 -16 -5 -31 -2
-35 9 -8 10 -26 17 -180 4 -77 8 -156 10 -175 2 -19 5 -75 6 -125 1 -49 6 -98
11 -107 4 -9 5 -19 1 -21 -7 -4 -9 -72 -3 -72 1 0 3 -52 5 -115 2 -63 4 -115
5 -115 1 0 3 -67 4 -148 2 -81 6 -151 10 -154 11 -11 6 -24 -6 -17 -7 5 -8 3
-3 -7 5 -7 10 -45 11 -84 6 -203 9 -237 20 -246 7 -5 15 -6 18 -1 2 4 20 7 38
5 73 -7 96 -8 93 -3 -2 3 19 5 46 5 27 0 49 -2 49 -5 0 -3 15 -5 34 -5 19 0
33 2 31 5 -2 3 19 5 46 5 27 0 49 -3 49 -6 0 -4 16 -3 34 1 19 4 37 5 40 3 7
-7 75 -9 71 -3 -2 4 17 6 43 6 l47 -1 1 125 c6 400 7 433 21 414 7 -9 34 -68
60 -131 46 -112 47 -113 70 -98 12 8 29 15 38 15 8 0 15 5 15 12 0 6 3 9 6 6
3 -4 25 3 50 13 24 11 48 18 52 15 5 -3 9 -51 11 -108 2 -102 8 -245 10 -262
1 -4 7 -6 14 -3 6 2 21 1 32 -3 11 -4 29 -4 40 0 11 4 29 4 39 0 11 -3 38 -3
60 1 24 4 46 3 53 -2 7 -7 13 -6 17 0 4 6 16 7 28 2 12 -4 40 -4 62 0 24 4 46
3 53 -2 7 -7 13 -6 17 0 4 6 16 7 28 2 12 -4 40 -4 62 0 24 4 46 3 53 -2 18
-16 28 10 30 81 1 36 2 65 3 65 1 0 3 47 5 105 2 58 6 175 10 260 3 85 7 205
9 265 4 91 14 322 20 425 1 14 5 31 9 38 5 6 4 12 -2 12 -5 0 -8 10 -5 23 3
12 7 65 9 117 3 52 8 133 10 180 3 47 7 110 8 140 l2 55 -365 1 c-353 1 -400
-2 -383 -29 4 -6 8 -40 9 -76 9 -204 14 -298 18 -318 3 -14 0 -23 -7 -23 -8 0
-8 -3 -2 -8 6 -4 11 -18 11 -32 3 -61 15 -313 20 -395 11 -166 10 -200 -3
-198 -7 2 -13 -1 -13 -5 0 -11 -253 -11 -261 1 -3 5 -5 32 -3 60 2 29 5 86 7
128 2 42 7 81 11 88 4 6 2 11 -4 11 -6 0 -8 5 -5 10 4 6 8 59 10 118 2 59 4
107 5 107 1 0 3 38 5 85 7 186 17 355 21 362 3 4 -1 8 -8 8 -8 0 -9 3 -3 8 6
4 11 27 10 52 l0 45 -398 1 c-219 0 -400 -2 -402 -5z"/>
<path d="M8685 4602 c-2 -2 -2 -9 0 -15 6 -15 13 -82 29 -262 1 -11 5 -26 9
-32 5 -8 3 -13 -4 -13 -8 0 -8 -4 -2 -12 6 -7 11 -31 12 -53 0 -22 3 -56 6
-75 5 -40 15 -154 20 -220 12 -198 19 -311 19 -347 0 -24 3 -43 6 -43 3 0 6
-44 7 -98 1 -53 4 -143 6 -199 l5 -103 -32 -1 c-76 -2 -115 2 -173 20 -18 5
-33 8 -33 5 0 -3 -8 -1 -17 4 -10 5 -30 12 -45 16 -25 6 -26 4 -22 -21 3 -16
7 -35 9 -43 2 -8 7 -40 10 -70 3 -30 9 -68 12 -85 3 -16 6 -49 7 -72 0 -23 3
-39 5 -37 2 2 9 0 15 -5 11 -9 143 -29 229 -35 26 -2 50 -6 53 -9 3 -3 16 -2
29 3 14 5 26 5 34 -3 6 -6 11 -7 11 -1 0 5 28 10 63 11 35 1 92 9 127 18 36 8
70 17 77 18 7 2 16 6 19 10 4 4 16 7 26 7 10 0 18 5 18 10 0 6 3 9 8 8 19 -4
162 75 170 94 2 5 10 8 18 8 8 0 14 8 14 18 0 9 1 172 2 362 0 208 5 350 11
358 5 6 5 12 0 12 -5 0 -8 16 -8 35 0 19 4 35 10 35 5 0 4 5 -3 12 -7 7 -8 17
-2 28 5 9 5 22 0 30 -5 8 -5 21 -1 29 4 9 7 32 6 51 0 19 4 38 10 42 6 5 5 8
-3 8 -7 0 -11 4 -8 9 3 5 8 67 11 137 2 71 5 129 5 129 1 0 3 45 5 100 2 55 7
125 9 155 3 30 2 60 -2 66 -5 8 -124 11 -395 11 -213 -1 -389 -3 -392 -5z"/>
<path d="M9573 4508 c1 -54 4 -98 7 -98 3 0 5 -24 6 -52 1 -48 5 -123 18 -318
11 -164 24 -447 30 -691 2 -59 6 -111 10 -118 4 -6 3 -11 -2 -11 -5 0 -9 -7
-9 -15 0 -8 3 -15 6 -15 3 0 7 -64 8 -143 2 -227 -1 -206 33 -205 17 1 33 -2
36 -5 3 -3 16 -2 28 2 11 5 30 5 40 1 11 -3 38 -3 60 1 24 4 46 3 53 -2 7 -7
13 -6 17 0 4 6 16 7 28 2 12 -4 40 -4 62 0 24 4 46 3 53 -2 7 -7 13 -6 17 0 4
6 16 7 28 2 12 -4 40 -4 62 0 24 4 46 3 53 -2 7 -7 13 -6 17 0 4 6 16 7 28 2
12 -4 40 -4 62 0 24 4 46 3 53 -2 7 -7 13 -6 17 0 4 6 16 7 28 2 12 -4 40 -4
62 0 24 4 46 3 53 -2 7 -7 13 -6 17 0 4 7 15 7 30 1 13 -5 26 -7 28 -5 2 2 20
5 41 7 20 1 37 5 38 8 0 3 3 16 5 30 2 14 6 41 9 60 2 19 6 44 9 55 24 91 43
185 37 186 -7 2 -10 1 -53 -6 -71 -13 -211 -27 -290 -30 -32 -1 -60 -4 -63 -7
-4 -3 -14 -4 -25 -1 -17 5 -18 14 -13 141 3 76 6 183 7 239 0 57 3 103 6 103
3 0 6 24 6 53 2 110 23 598 30 682 3 33 5 66 5 73 -1 19 -1 53 0 107 1 28 0
55 0 61 -1 7 -121 11 -396 11 l-394 0 2 -99z"/>
</g>
</svg>
